<?xml version="1.0" encoding="utf-8"?>
<!-- Generator: Adobe Illustrator 19.2.1, SVG Export Plug-In . SVG Version: 6.00 Build 0)  -->
<svg version="1.1" id="Layer_1" xmlns="http://www.w3.org/2000/svg" xmlns:xlink="http://www.w3.org/1999/xlink" x="0px" y="0px"
	 viewBox="0 0 45.2 45.2" style="enable-background:new 0 0 45.2 45.2;" xml:space="preserve">
<style type="text/css">
	.st0{fill:url(#SVGID_1_);}
	.st1{fill:url(#SVGID_2_);}
	.st2{fill:url(#SVGID_3_);}
	.st3{fill:url(#SVGID_4_);}
	.st4{fill:url(#SVGID_5_);}
</style>
<title>stationary</title>
<linearGradient id="SVGID_1_" gradientUnits="userSpaceOnUse" x1="22.58" y1="48" x2="22.58" y2="2.84" gradientTransform="matrix(1 0 0 -1 0 48)">
	<stop  offset="0" style="stop-color:#2791D8"/>
	<stop  offset="1" style="stop-color:#756DE3"/>
</linearGradient>
<path class="st0" d="M22.6,45.2C10.1,45.2,0,35.1,0,22.6S10.1,0,22.6,0s22.6,10.1,22.6,22.6S35.1,45.2,22.6,45.2L22.6,45.2z M22.6,1
	C10.7,1,1,10.7,1,22.6s9.7,21.6,21.6,21.6s21.6-9.7,21.6-21.6l0,0l0,0C44.1,10.7,34.5,1,22.6,1z"/>
<g>
	<linearGradient id="SVGID_2_" gradientUnits="userSpaceOnUse" x1="22.58" y1="0.5" x2="22.58" y2="45.1918">
		<stop  offset="0" style="stop-color:#2791D8"/>
		<stop  offset="1" style="stop-color:#756DE3"/>
	</linearGradient>
	<path class="st1" d="M22.6,26.6c-0.1,0-0.1,0-0.2,0l-11.5-5c-0.3-0.1-0.4-0.4-0.3-0.7c0.1-0.3,0.4-0.4,0.7-0.3l11.3,4.9l11.3-4.9
		c0.3-0.1,0.5,0,0.7,0.3c0.1,0.3,0,0.5-0.3,0.7l-11.5,5C22.7,26.6,22.6,26.6,22.6,26.6z"/>
	<linearGradient id="SVGID_3_" gradientUnits="userSpaceOnUse" x1="22.58" y1="0.5" x2="22.58" y2="45.1918">
		<stop  offset="0" style="stop-color:#2791D8"/>
		<stop  offset="1" style="stop-color:#756DE3"/>
	</linearGradient>
	<path class="st2" d="M22.6,29.6c-0.1,0-0.1,0-0.2,0l-11.5-5c-0.3-0.1-0.4-0.4-0.3-0.7c0.1-0.3,0.4-0.4,0.7-0.3l11.3,4.9l11.3-4.9
		c0.3-0.1,0.5,0,0.7,0.3c0.1,0.3,0,0.5-0.3,0.7l-11.5,5C22.7,29.6,22.6,29.6,22.6,29.6z"/>
	<linearGradient id="SVGID_4_" gradientUnits="userSpaceOnUse" x1="22.58" y1="0.5" x2="22.58" y2="45.1918">
		<stop  offset="0" style="stop-color:#2791D8"/>
		<stop  offset="1" style="stop-color:#756DE3"/>
	</linearGradient>
	<path class="st3" d="M22.6,32.6c-0.1,0-0.1,0-0.2,0l-11.5-5c-0.3-0.1-0.4-0.4-0.3-0.7c0.1-0.3,0.4-0.4,0.7-0.3l11.3,4.9l11.3-4.9
		c0.3-0.1,0.5,0,0.7,0.3c0.1,0.3,0,0.5-0.3,0.7l-11.5,5C22.7,32.6,22.6,32.6,22.6,32.6z"/>
	<linearGradient id="SVGID_5_" gradientUnits="userSpaceOnUse" x1="22.5801" y1="0.5" x2="22.5801" y2="45.1918">
		<stop  offset="0" style="stop-color:#2791D8"/>
		<stop  offset="1" style="stop-color:#756DE3"/>
	</linearGradient>
	<path class="st4" d="M22.6,23.6c-0.1,0-0.1,0-0.2,0l-11.5-5c-0.2-0.1-0.3-0.3-0.3-0.5s0.1-0.4,0.3-0.5l11.5-5
		c0.1-0.1,0.3-0.1,0.4,0l11.5,5c0.2,0.1,0.3,0.3,0.3,0.5s-0.1,0.4-0.3,0.5l-11.5,5C22.7,23.6,22.6,23.6,22.6,23.6z M12.3,18.1
		l10.2,4.5l10.2-4.5l-10.2-4.5L12.3,18.1z"/>
</g>
</svg>
