<?xml version="1.0" encoding="utf-8"?>
<!-- Generator: Adobe Illustrator 19.2.1, SVG Export Plug-In . SVG Version: 6.00 Build 0)  -->
<svg version="1.1" id="Layer_1" xmlns="http://www.w3.org/2000/svg" xmlns:xlink="http://www.w3.org/1999/xlink" x="0px" y="0px"
	 viewBox="0 0 45.2 45.2" style="enable-background:new 0 0 45.2 45.2;" xml:space="preserve">
<style type="text/css">
	.st0{fill:url(#SVGID_1_);}
	.st1{fill:url(#SVGID_2_);}
</style>
<title>stationary</title>
<linearGradient id="SVGID_1_" gradientUnits="userSpaceOnUse" x1="22.58" y1="48" x2="22.58" y2="2.84" gradientTransform="matrix(1 0 0 -1 0 48)">
	<stop  offset="0" style="stop-color:#2791D8"/>
	<stop  offset="1" style="stop-color:#756DE3"/>
</linearGradient>
<path class="st0" d="M22.6,45.2C10.1,45.2,0,35.1,0,22.6S10.1,0,22.6,0s22.6,10.1,22.6,22.6S35.1,45.2,22.6,45.2L22.6,45.2z M22.6,1
	C10.7,1,1,10.7,1,22.6s9.7,21.6,21.6,21.6s21.6-9.7,21.6-21.6l0,0l0,0C44.1,10.7,34.5,1,22.6,1z"/>
<g>
	<linearGradient id="SVGID_2_" gradientUnits="userSpaceOnUse" x1="22.58" y1="0.125" x2="22.58" y2="44.9377">
		<stop  offset="0" style="stop-color:#2791D8"/>
		<stop  offset="1" style="stop-color:#756DE3"/>
	</linearGradient>
	<path class="st1" d="M30.5,18.6c0-0.3,0.1-0.7,0.1-1c0-4.4-3.6-8-8-8c-4.4,0-8,3.6-8,8c0,0.4,0,0.7,0.1,1c-2.4,1.4-4.1,4-4.1,7
		c0,4.4,3.6,8,8,8c1.5,0,2.8-0.4,4-1.1c1.2,0.7,2.5,1.1,4,1.1c4.4,0,8-3.6,8-8C34.6,22.6,32.9,20,30.5,18.6z M22.6,10.6
		c3.9,0,7,3.1,7,7c0,0.2,0,0.4,0,0.6c-0.9-0.4-1.9-0.6-3-0.6c-1.5,0-2.8,0.4-4,1.1c-1.2-0.7-2.5-1.1-4-1.1c-1,0-2,0.2-3,0.6
		c0-0.2,0-0.4,0-0.6C15.6,13.7,18.7,10.6,22.6,10.6z M22.6,19.8c1.4,1,2.4,2.4,2.8,4.2c-0.9,0.4-1.8,0.6-2.8,0.6s-2-0.2-2.8-0.6
		C20.2,22.3,21.2,20.8,22.6,19.8z M18.9,23.5c-1.5-1-2.7-2.5-3.1-4.3c0.9-0.4,1.8-0.6,2.8-0.6c1.1,0,2.1,0.2,3.1,0.7
		C20.3,20.4,19.3,21.8,18.9,23.5z M23.5,19.3c0.9-0.5,2-0.7,3.1-0.7c1,0,2,0.2,2.8,0.6c-0.4,1.8-1.5,3.4-3.1,4.3
		C25.8,21.8,24.9,20.4,23.5,19.3z M18.6,32.6c-3.9,0-7-3.1-7-7c0-2.5,1.3-4.7,3.3-5.9c0.6,2.1,2,3.8,3.8,4.9c-0.1,0.3-0.1,0.7-0.1,1
		c0,2.5,1.2,4.8,3.1,6.3C20.7,32.3,19.7,32.6,18.6,32.6z M22.6,31.3c-1.8-1.3-3-3.4-3-5.7c0-0.2,0-0.4,0-0.6c0.9,0.4,1.9,0.6,3,0.6
		s2-0.2,3-0.6c0,0.2,0,0.4,0,0.6C25.6,27.9,24.4,30.1,22.6,31.3z M26.6,32.6c-1.1,0-2.1-0.2-3.1-0.7c1.9-1.5,3.1-3.8,3.1-6.3
		c0-0.3,0-0.7-0.1-1c1.8-1,3.2-2.8,3.8-4.9c2,1.2,3.3,3.4,3.3,5.9C33.6,29.4,30.4,32.6,26.6,32.6z"/>
</g>
</svg>
