<?xml version="1.0" encoding="utf-8"?>
<!-- Generator: Adobe Illustrator 19.2.1, SVG Export Plug-In . SVG Version: 6.00 Build 0)  -->
<svg version="1.1" id="Layer_1" xmlns="http://www.w3.org/2000/svg" xmlns:xlink="http://www.w3.org/1999/xlink" x="0px" y="0px"
	 viewBox="0 0 45.2 45.2" style="enable-background:new 0 0 45.2 45.2;" xml:space="preserve">
<style type="text/css">
	.st0{display:none;fill:url(#SVGID_1_);}
	.st1{display:none;fill:url(#SVGID_2_);}
	.st2{display:none;fill:url(#SVGID_3_);}
	.st3{display:none;fill:url(#SVGID_4_);}
	.st4{fill:url(#SVGID_5_);}
	.st5{fill:url(#SVGID_6_);}
	.st6{fill:url(#SVGID_7_);}
	.st7{fill:url(#SVGID_8_);}
	.st8{fill:url(#SVGID_9_);}
	.st9{fill:url(#SVGID_10_);}
	.st10{fill:url(#SVGID_11_);}
</style>
<title>stationary</title>
<linearGradient id="SVGID_1_" gradientUnits="userSpaceOnUse" x1="17.57" y1="34.5077" x2="17.57" y2="13.29" gradientTransform="matrix(1 0 0 -1 0 48)">
	<stop  offset="0" style="stop-color:#2791D8"/>
	<stop  offset="1" style="stop-color:#756DE3"/>
</linearGradient>
<path class="st0" d="M17.6,34.7c-1.4,0-2.6-1.2-2.6-2.6V18.6c0-0.1,0-0.2,0-0.2l2-4.5c0.2-0.3,0.6-0.4,0.9-0.3
	c0.1,0.1,0.2,0.1,0.3,0.3l2,4.5c0,0.1,0,0.2,0,0.2v13.5C20.1,33.5,19,34.7,17.6,34.7z M16.2,18.7v13.4c0.1,0.8,0.7,1.3,1.5,1.3
	c0.7-0.1,1.2-0.6,1.3-1.3V18.7l-1.4-3.1L16.2,18.7z"/>
<linearGradient id="SVGID_2_" gradientUnits="userSpaceOnUse" x1="22.0599" y1="37.5401" x2="22.0599" y2="13.29" gradientTransform="matrix(1 0 0 -1 0 48)">
	<stop  offset="0" style="stop-color:#2791D8"/>
	<stop  offset="1" style="stop-color:#756DE3"/>
</linearGradient>
<path class="st1" d="M19.6,31.7h-4c-0.3,0-0.6-0.4-0.5-0.7c0-0.3,0.3-0.5,0.5-0.5h4c0.3,0,0.6,0.4,0.5,0.7
	C20.1,31.4,19.9,31.7,19.6,31.7z M19.6,29.7h-4c-0.3,0-0.7-0.2-0.7-0.5s0.2-0.7,0.5-0.7h4.2c0.3,0,0.6,0.4,0.5,0.7
	C20.1,29.4,19.9,29.7,19.6,29.7z M28.6,34.7h-6c-0.3,0-0.6-0.3-0.6-0.6v-23c0-0.3,0.3-0.6,0.6-0.6l0,0h6c0.3,0,0.6,0.3,0.6,0.6
	c0,0,0,0,0,0l0,0v23C29.2,34.4,29,34.7,28.6,34.7L28.6,34.7L28.6,34.7z M23.2,33.5H28V11.7h-4.8V33.5z"/>
<linearGradient id="SVGID_3_" gradientUnits="userSpaceOnUse" x1="20.2503" y1="34.54" x2="20.2503" y2="17.29" gradientTransform="matrix(1 0 0 -1 0 48)">
	<stop  offset="0" style="stop-color:#2791D8"/>
	<stop  offset="1" style="stop-color:#756DE3"/>
</linearGradient>
<path class="st2" d="M24.6,14.7h-2c-0.3,0-0.6-0.4-0.5-0.7c0-0.3,0.3-0.5,0.5-0.5h2c0.3,0,0.6,0.4,0.5,0.7
	C25.1,14.4,24.9,14.7,24.6,14.7z M24.6,18.7h-2c-0.3,0-0.6-0.4-0.5-0.7c0-0.3,0.3-0.5,0.5-0.5h2c0.3,0,0.6,0.4,0.5,0.7
	C25.1,18.4,24.9,18.7,24.6,18.7z M24.6,22.7h-2c-0.3,0-0.6-0.4-0.5-0.7c0-0.3,0.3-0.5,0.5-0.5h2c0.3,0,0.6,0.4,0.5,0.7
	C25.1,22.4,24.9,22.7,24.6,22.7z M24.6,26.7h-2c-0.3,0-0.6-0.4-0.5-0.7c0-0.3,0.3-0.5,0.5-0.5h2c0.3,0,0.6,0.4,0.5,0.7
	C25.1,26.4,24.9,26.7,24.6,26.7z M24.6,30.7h-2c-0.3,0-0.6-0.4-0.5-0.7c0-0.3,0.3-0.5,0.5-0.5h2c0.3,0,0.6,0.4,0.5,0.7
	C25.1,30.4,24.9,30.7,24.6,30.7z M19.1,18.7h-3c-0.3,0-0.7-0.2-0.7-0.5s0.2-0.7,0.5-0.7h3.2c0.3,0,0.6,0.4,0.5,0.7
	C19.6,18.4,19.4,18.7,19.1,18.7z"/>
<linearGradient id="SVGID_4_" gradientUnits="userSpaceOnUse" x1="17.625" y1="30.4709" x2="17.625" y2="18.29" gradientTransform="matrix(1 0 0 -1 0 48)">
	<stop  offset="0" style="stop-color:#2791D8"/>
	<stop  offset="1" style="stop-color:#756DE3"/>
</linearGradient>
<path class="st3" d="M17.6,29.7c-0.3,0-0.6-0.3-0.6-0.6v-11c0-0.3,0.4-0.6,0.7-0.5c0.3,0,0.5,0.3,0.5,0.5v11
	C18.3,29.4,18,29.7,17.6,29.7C17.6,29.7,17.6,29.7,17.6,29.7L17.6,29.7z"/>
<linearGradient id="SVGID_5_" gradientUnits="userSpaceOnUse" x1="22.58" y1="48" x2="22.58" y2="2.84" gradientTransform="matrix(1 0 0 -1 0 48)">
	<stop  offset="0" style="stop-color:#2791D8"/>
	<stop  offset="1" style="stop-color:#756DE3"/>
</linearGradient>
<path class="st4" d="M22.6,45.2C10.1,45.2,0,35.1,0,22.6S10.1,0,22.6,0s22.6,10.1,22.6,22.6S35.1,45.2,22.6,45.2L22.6,45.2z M22.6,1
	C10.7,1,1,10.7,1,22.6s9.7,21.6,21.6,21.6s21.6-9.7,21.6-21.6l0,0l0,0C44.1,10.7,34.5,1,22.6,1z"/>
<g>
	<linearGradient id="SVGID_6_" gradientUnits="userSpaceOnUse" x1="24.6548" y1="0.375" x2="24.6548" y2="45.0016">
		<stop  offset="0" style="stop-color:#2791D8"/>
		<stop  offset="1" style="stop-color:#756DE3"/>
	</linearGradient>
	<path class="st5" d="M34.8,18.1l-4.5-3.9c-0.2-0.2-0.5-0.3-0.8-0.4c-0.2-0.2-0.4-0.4-0.7-0.5l-5.6-2.1c-0.3-0.1-0.6-0.1-0.8-0.1
		c-0.2-0.2-0.5-0.2-0.8-0.2h-6c-0.8,0-1.5,0.7-1.5,1.5v21c0,0.8,0.7,1.5,1.5,1.5h6c0.4,0,0.7-0.1,1-0.4c0,0,0,0,0,0l0,0l0.2-0.2
		L35,20.3C35.5,19.6,35.4,18.7,34.8,18.1z M22,33.5c0,0.1,0,0.2-0.1,0.3l0,0l-0.1,0.1C21.7,34,21.6,34,21.5,34h-6
		c-0.3,0-0.5-0.2-0.5-0.5v-21c0-0.3,0.2-0.5,0.5-0.5h6c0.3,0,0.5,0.2,0.5,0.5V33.5z M23,12.3l5.5,2c0.3,0.1,0.4,0.4,0.3,0.6L23,30.4
		V12.5C23,12.4,23,12.4,23,12.3z M34.2,19.6L23.5,31.9l6.2-16.6c0-0.1,0-0.1,0-0.2l4.4,3.8C34.3,19.1,34.4,19.4,34.2,19.6z"/>
	<linearGradient id="SVGID_7_" gradientUnits="userSpaceOnUse" x1="22.48" y1="0.375" x2="22.48" y2="45.0016">
		<stop  offset="0" style="stop-color:#2791D8"/>
		<stop  offset="1" style="stop-color:#756DE3"/>
	</linearGradient>
	<path class="st6" d="M22.5,34.6L22.5,34.6L22.5,34.6C22.5,34.6,22.5,34.6,22.5,34.6z"/>
	<linearGradient id="SVGID_8_" gradientUnits="userSpaceOnUse" x1="18.5" y1="0.375" x2="18.5" y2="45.0016">
		<stop  offset="0" style="stop-color:#2791D8"/>
		<stop  offset="1" style="stop-color:#756DE3"/>
	</linearGradient>
	<path class="st7" d="M20.5,13h-4c-0.3,0-0.5,0.2-0.5,0.5v4c0,0.3,0.2,0.5,0.5,0.5h4c0.3,0,0.5-0.2,0.5-0.5v-4
		C21,13.2,20.8,13,20.5,13z M20,17h-3v-3h3V17z"/>
	<linearGradient id="SVGID_9_" gradientUnits="userSpaceOnUse" x1="18.5" y1="0.375" x2="18.5" y2="45.0016">
		<stop  offset="0" style="stop-color:#2791D8"/>
		<stop  offset="1" style="stop-color:#756DE3"/>
	</linearGradient>
	<path class="st8" d="M20.5,19h-4c-0.3,0-0.5,0.2-0.5,0.5v4c0,0.3,0.2,0.5,0.5,0.5h4c0.3,0,0.5-0.2,0.5-0.5v-4
		C21,19.2,20.8,19,20.5,19z M20,23h-3v-3h3V23z"/>
	<linearGradient id="SVGID_10_" gradientUnits="userSpaceOnUse" x1="18.5" y1="0.375" x2="18.5" y2="45.0016">
		<stop  offset="0" style="stop-color:#2791D8"/>
		<stop  offset="1" style="stop-color:#756DE3"/>
	</linearGradient>
	<path class="st9" d="M20.5,25h-4c-0.3,0-0.5,0.2-0.5,0.5v4c0,0.3,0.2,0.5,0.5,0.5h4c0.3,0,0.5-0.2,0.5-0.5v-4
		C21,25.2,20.8,25,20.5,25z M20,29h-3v-3h3V29z"/>
	<linearGradient id="SVGID_11_" gradientUnits="userSpaceOnUse" x1="18.5" y1="0.375" x2="18.5" y2="45.0016">
		<stop  offset="0" style="stop-color:#2791D8"/>
		<stop  offset="1" style="stop-color:#756DE3"/>
	</linearGradient>
	<path class="st10" d="M18.5,30.5c-0.8,0-1.5,0.7-1.5,1.5c0,0.8,0.7,1.5,1.5,1.5S20,32.8,20,32C20,31.2,19.3,30.5,18.5,30.5z
		 M18.5,32.5c-0.3,0-0.5-0.2-0.5-0.5c0-0.3,0.2-0.5,0.5-0.5S19,31.7,19,32C19,32.3,18.8,32.5,18.5,32.5z"/>
</g>
</svg>
